<?xml version="1.0" standalone="no"?>
<!DOCTYPE svg PUBLIC "-//W3C//DTD SVG 20010904//EN"
 "http://www.w3.org/TR/2001/REC-SVG-20010904/DTD/svg10.dtd">
<svg version="1.0" xmlns="http://www.w3.org/2000/svg"
 width="230.000000pt" height="300.000000pt" viewBox="0 0 230.000000 300.000000"
 preserveAspectRatio="xMidYMid meet">

<g transform="translate(0.000000,300.000000) scale(0.100000,-0.100000)"
fill="white" stroke="red">
<path d="M1044 2984 c-125 -44 -197 -189 -159 -320 20 -71 51 -114 116 -161
47 -33 49 -37 49 -83 l0 -49 -42 -3 c-24 -2 -53 3 -66 11 -32 19 -95 8 -133
-23 -17 -14 -38 -26 -48 -26 -9 0 -25 -6 -34 -12 -20 -15 -32 -92 -23 -141 6
-30 13 -38 49 -52 23 -9 52 -25 63 -36 25 -23 117 -30 136 -11 7 7 29 12 50
12 37 0 38 -1 38 -35 0 -23 -5 -35 -14 -35 -7 0 -49 -18 -92 -40 -92 -46 -196
-131 -206 -169 -4 -14 -16 -51 -27 -81 -11 -30 -20 -63 -21 -72 0 -26 -9 -22
-59 20 -39 34 -42 41 -32 60 41 77 -33 156 -113 118 -45 -21 -48 -21 -98 17
-24 17 -61 44 -83 60 -89 61 -90 62 -77 92 22 49 -12 90 -55 66 -13 -6 -24 -5
-38 5 -38 28 -88 16 -110 -27 -21 -41 -19 -57 15 -90 24 -24 28 -34 20 -49
-23 -44 -32 -120 -19 -173 10 -43 22 -62 75 -113 l63 -61 7 -102 c4 -55 11
-101 16 -101 6 0 7 23 3 55 -4 30 -4 55 -1 55 3 0 13 -18 22 -40 9 -22 20 -40
26 -40 5 0 2 10 -6 22 -9 12 -16 27 -16 33 1 11 34 -45 35 -58 0 -9 56 -47 69
-47 6 0 1 7 -10 15 -14 11 -15 14 -2 9 9 -3 26 -1 37 6 26 13 29 -4 4 -20 -16
-10 -16 -10 2 -6 18 5 20 2 16 -45 -2 -36 0 -49 8 -45 6 4 11 39 11 84 1 45 6
87 14 101 12 21 14 7 21 -125 4 -82 7 -186 7 -231 0 -46 4 -83 9 -83 12 0 12
4 9 155 -2 128 -2 130 17 113 22 -20 43 -24 43 -8 0 6 5 10 10 10 6 0 10 -31
10 -74 0 -43 5 -78 11 -82 7 -4 9 10 5 47 -17 161 -18 245 -3 258 8 6 19 24
23 39 7 24 9 22 14 -23 l7 -50 1 47 c1 26 7 50 12 53 6 4 37 -17 70 -45 66
-58 72 -75 45 -150 -12 -35 -13 -46 -1 -68 8 -17 11 -35 6 -48 -12 -30 5 -162
23 -182 35 -40 30 -56 -31 -105 -42 -33 -69 -46 -97 -49 -32 -2 -42 -9 -59
-39 -12 -20 -29 -47 -39 -60 l-18 -24 -39 45 -39 45 50 3 c68 4 64 24 -16 90
-77 63 -163 161 -224 255 -24 37 -49 66 -55 64 -33 -11 -31 -237 3 -382 22
-89 67 -190 86 -190 6 0 16 19 23 43 8 23 17 42 20 42 7 0 72 -95 72 -104 0
-3 -18 -10 -40 -16 -27 -7 -45 -19 -52 -35 -14 -30 -75 -71 -188 -124 -104
-49 -95 -56 65 -56 96 0 117 3 165 25 53 24 57 25 103 10 39 -12 49 -20 55
-44 11 -40 36 -55 63 -37 22 13 22 12 16 -40 -6 -51 11 -137 25 -124 3 3 3 60
0 126 l-5 120 67 -33 66 -32 2 -76 2 -75 3 73 c2 39 8 72 12 72 26 0 34 -36
35 -155 1 -69 4 -125 9 -125 4 0 7 36 7 80 0 71 3 82 24 104 l25 24 4 -36 c4
-37 4 -37 5 6 1 24 7 42 14 42 25 0 182 -97 233 -145 l55 -51 61 57 c44 41 98
75 195 124 74 37 141 65 148 62 21 -8 15 -137 -8 -172 -10 -15 -13 -24 -7 -21
7 5 11 -5 12 -26 1 -18 3 -25 6 -15 8 29 23 19 24 -15 1 -31 1 -32 9 -8 7 21
8 18 9 -18 1 -26 5 -41 11 -37 6 4 10 -6 10 -22 0 -38 17 -12 26 40 3 21 13
41 20 44 12 5 14 32 12 158 l-2 153 67 51 68 52 28 -21 c16 -11 64 -37 106
-57 68 -32 88 -37 174 -41 63 -3 111 0 135 8 l38 12 -75 32 c-99 43 -209 111
-274 169 l-22 19 32 49 c18 27 34 49 37 49 3 0 12 -18 20 -41 8 -23 20 -42 25
-43 16 -2 63 101 86 189 17 63 22 110 23 222 1 189 -8 197 -84 83 -60 -91
-136 -176 -214 -240 -37 -31 -66 -63 -66 -73 0 -16 7 -18 50 -15 28 1 50 1 50
-2 0 -3 -18 -25 -38 -49 l-38 -43 -79 62 c-44 34 -98 80 -120 102 -22 21 -67
57 -100 78 -33 22 -77 54 -98 72 -37 32 -38 35 -26 61 11 25 17 28 43 21 44
-10 76 -8 90 6 8 9 4 11 -20 5 -20 -4 -46 0 -69 9 -48 20 -104 20 -130 0 -20
-16 -20 -16 3 -9 26 8 26 2 1 -50 -16 -33 -18 -35 -14 -12 4 19 2 26 -5 22 -5
-3 -10 -22 -10 -41 0 -19 -4 -34 -10 -34 -5 0 -10 5 -10 10 0 18 -20 11 -20
-7 -1 -16 -2 -16 -15 1 -13 17 -15 18 -15 3 0 -22 -17 -22 -23 0 -4 15 -6 15
-12 -4 -9 -27 -25 -31 -25 -6 0 13 -3 14 -12 5 -17 -17 -28 -15 -28 5 0 15 -2
14 -15 -3 -14 -19 -14 -19 -15 0 0 16 -3 17 -12 8 -20 -20 -28 -14 -28 21 0
17 -5 39 -10 47 -7 11 -8 5 -5 -20 5 -33 5 -33 -13 10 -10 25 -14 47 -10 48
16 7 -4 22 -30 22 -33 0 -45 8 -61 38 -11 20 -10 27 5 43 9 10 25 19 35 19 28
0 69 22 62 33 -4 6 -1 7 6 3 7 -5 10 -14 7 -22 -6 -16 17 -9 59 19 l30 20 -30
-33 c-16 -18 -24 -30 -17 -26 16 10 15 -5 -3 -31 -11 -15 -12 -28 -6 -45 9
-22 10 -22 10 -2 1 12 14 48 31 80 33 65 36 79 18 68 -10 -6 -10 -4 0 7 6 7
12 22 12 32 0 15 5 18 21 14 14 -4 22 1 28 16 8 21 8 21 16 -3 25 -82 94 -123
208 -126 74 -1 79 0 95 25 9 14 22 31 29 36 6 6 13 19 16 30 3 12 5 6 6 -15 1
-23 4 -31 10 -22 7 11 9 11 14 -2 7 -19 -18 -72 -41 -86 -9 -5 -13 -10 -8 -10
5 0 -4 -10 -19 -22 -18 -14 -42 -21 -72 -22 l-45 -1 42 -18 c54 -24 83 -16
110 28 28 46 38 45 11 -1 -23 -39 -25 -44 -13 -44 14 0 71 120 65 136 -4 12 0
15 18 12 19 -2 26 -12 35 -54 13 -60 40 -104 63 -104 10 0 27 11 39 25 12 14
26 25 31 25 5 0 13 -44 16 -99 7 -91 17 -133 29 -121 2 3 0 25 -4 50 -31 162
-19 420 19 420 23 1 45 20 70 60 l21 35 1 -65 c1 -36 5 -90 9 -120 l9 -55 -3
58 c-2 42 1 57 11 57 7 0 13 3 14 8 1 4 6 36 13 72 l11 65 43 7 c98 16 210
108 232 189 13 47 6 126 -14 174 -12 28 -11 32 16 57 35 33 36 71 3 103 -27
28 -71 33 -100 11 -14 -10 -25 -11 -42 -3 -20 9 -28 7 -45 -10 -19 -20 -20
-25 -8 -54 13 -30 12 -33 -15 -53 -63 -47 -132 -97 -167 -122 l-37 -26 -30 21
c-40 29 -67 26 -102 -8 -31 -31 -35 -53 -19 -97 10 -24 7 -30 -31 -65 -23 -22
-46 -39 -50 -39 -4 0 -10 18 -14 41 -4 22 -23 72 -42 110 -27 55 -49 81 -99
121 -73 59 -74 61 -12 143 28 38 52 57 83 70 38 14 45 21 51 51 10 53 -3 127
-25 144 -15 11 -21 34 -26 93 -5 52 -13 85 -26 101 -11 13 -19 27 -19 30 0 4
-17 29 -37 57 -36 47 -38 55 -38 122 -1 170 -114 279 -287 276 -29 0 -72 -7
-94 -15z m43 -15 c-58 -13 -92 -34 -131 -81 -54 -63 -70 -144 -44 -230 15 -51
79 -123 137 -154 25 -13 35 -22 21 -18 -152 39 -229 242 -144 380 35 57 121
115 169 113 29 -1 29 -1 -8 -10z m191 -15 c59 -29 94 -70 117 -133 15 -45 21
-151 8 -151 -14 1 -67 48 -69 62 -11 65 -16 83 -25 86 -5 2 -7 8 -3 13 3 5 -2
9 -11 9 -9 0 -13 5 -10 10 3 6 -1 10 -9 10 -9 0 -16 4 -16 9 0 5 -20 14 -45
20 -39 10 -50 9 -78 -6 l-32 -18 55 -5 c30 -3 65 -11 77 -18 24 -13 54 -62 52
-84 0 -7 -7 1 -14 17 -23 52 -50 69 -119 73 -59 4 -66 2 -96 -25 -26 -24 -33
-39 -37 -79 -10 -99 42 -147 160 -149 80 -1 111 -21 89 -56 -11 -17 -11 -20 0
-13 11 6 11 5 0 -8 -26 -33 -82 -30 -169 8 -17 8 -33 14 -36 14 -4 0 -18 11
-33 25 -15 14 -23 25 -18 25 5 0 -2 7 -14 16 -12 8 -20 19 -17 24 3 5 1 11 -5
15 -6 4 -8 10 -5 15 3 5 1 11 -4 15 -5 3 -8 14 -6 25 2 11 0 20 -5 20 -5 0 -6
12 -3 28 3 15 6 32 7 37 1 6 5 16 9 23 5 7 3 12 -3 12 -19 0 54 90 78 96 16 5
20 9 12 14 -15 9 92 48 136 49 16 1 54 -11 82 -25z m-73 -128 c30 -13 55 -41
55 -63 0 -4 -34 -9 -76 -11 -42 -2 -89 -9 -105 -17 -43 -23 -52 -19 -44 18 9
40 22 57 60 73 39 17 68 17 110 0z m-25 -101 c42 -22 39 -42 -5 -40 -19 1 -35
0 -35 -2 0 -2 15 -12 33 -23 17 -11 25 -20 16 -20 -17 0 -99 66 -99 80 0 8 21
16 48 19 7 0 26 -6 42 -14z m94 -6 c14 -11 26 -27 26 -35 0 -18 -5 -18 -37 3
l-25 17 22 -45 c29 -57 11 -39 -29 29 l-30 52 23 0 c13 0 35 -9 50 -21z m-186
-25 c24 -17 21 -35 -6 -31 -26 4 -42 17 -42 33 0 18 20 18 48 -2z m266 -15
c14 -17 26 -36 26 -43 0 -24 -13 -25 -32 -3 l-19 22 5 -35 c4 -22 2 -29 -3
-20 -12 21 -20 110 -11 110 5 0 20 -14 34 -31z m68 -56 c10 -9 18 -29 18 -45
0 -30 -17 -38 -26 -13 -4 8 -10 12 -15 9 -5 -3 -9 11 -9 30 0 40 5 43 32 19z
m-232 -3 c0 -5 -9 -10 -21 -10 -11 0 -17 5 -14 10 3 6 13 10 21 10 8 0 14 -4
14 -10z m300 -106 c0 -29 -10 -54 -21 -54 -5 0 -9 11 -9 25 0 28 -20 35 -21 8
0 -10 -3 -13 -5 -7 -2 6 3 28 12 49 15 37 17 38 30 20 8 -10 14 -29 14 -41z
m-90 21 c0 -8 -2 -15 -4 -15 -2 0 -6 7 -10 15 -3 8 -1 15 4 15 6 0 10 -7 10
-15z m-14 -22 c20 -30 44 -90 44 -110 0 -8 -12 -13 -28 -13 -16 0 -36 -6 -45
-13 -10 -7 -37 -11 -62 -9 l-45 4 0 48 c0 46 2 50 48 83 26 20 52 36 58 36 7
1 20 -11 30 -26z m137 -45 c7 -26 -19 -92 -33 -83 -6 3 -8 10 -6 14 3 4 1 13
-4 20 -6 10 -12 7 -24 -15 -8 -16 -15 -24 -16 -18 0 6 14 28 30 49 17 21 30
42 30 46 0 18 18 8 23 -13z m-442 -5 c5 -38 4 -83 -3 -83 -4 0 -8 10 -8 23 0
12 -3 32 -6 45 -4 13 -2 22 5 22 6 0 11 -3 12 -7z m136 -48 c24 -24 10 -44
-27 -36 -17 3 -31 9 -31 14 1 4 1 14 1 22 0 20 37 19 57 0z m319 -57 c-6 -31
-32 -68 -47 -68 -4 0 -4 14 1 30 5 17 6 30 3 30 -12 0 -43 -33 -43 -47 0 -7
-4 -13 -10 -13 -19 0 11 45 48 72 48 35 56 35 48 -4z m-660 -5 c-6 -16 -6 -16
12 0 10 9 25 17 32 17 7 0 1 -11 -14 -25 -27 -25 -27 -28 -24 -118 2 -50 7
-101 12 -112 8 -20 7 -20 -8 -1 -9 11 -16 27 -16 35 0 9 -5 23 -10 31 -9 13
-11 13 -20 0 -7 -11 -10 -11 -10 -2 0 7 -4 10 -10 7 -17 -11 -11 -54 11 -76
16 -16 29 -20 55 -16 18 3 36 1 39 -4 11 -17 -72 -10 -94 9 -53 42 -53 227 0
257 11 6 12 5 2 -6 -18 -19 -16 -29 7 -29 18 0 25 16 21 43 0 4 4 7 10 7 6 0
8 -7 5 -17z m525 0 c13 -15 12 -15 -11 -3 -34 17 -36 20 -18 20 9 0 22 -7 29
-17z m-28 -11 c15 -6 27 -17 27 -24 0 -11 -2 -11 -8 0 -28 43 -456 43 -484 -1
-6 -9 -8 -9 -8 0 0 16 12 22 62 33 59 12 376 6 411 -8z m-223 -22 c0 9 3 11 8
5 4 -5 51 -11 104 -12 113 -2 138 -12 138 -53 0 -29 -34 -65 -52 -54 -4 3 -8
-1 -8 -8 0 -9 -3 -9 -10 2 -6 10 -10 11 -10 3 0 -15 -21 -13 -32 2 -5 6 -8 4
-8 -5 0 -13 -1 -13 -10 0 -9 13 -10 13 -10 0 0 -13 -1 -13 -10 0 -9 13 -10 13
-10 0 0 -13 -1 -13 -10 0 -8 12 -10 12 -11 -5 l0 -20 -9 20 -9 20 -1 -20 -1
-20 -9 20 -9 20 0 -20 c-1 -17 -3 -17 -11 -5 -9 13 -10 13 -11 0 0 -10 -3 -8
-9 5 l-9 20 0 -20 c-1 -17 -3 -17 -11 -5 -9 13 -10 13 -11 0 0 -10 -3 -8 -9 5
-6 13 -9 15 -9 5 -1 -13 -2 -13 -11 0 -7 12 -10 12 -10 1 0 -7 -6 -11 -15 -7
-8 3 -15 0 -15 -7 0 -8 -4 -6 -10 3 -5 8 -10 11 -10 5 0 -5 -5 -3 -10 5 -8 12
-10 12 -10 -5 0 -11 -4 -15 -8 -10 -4 6 -24 11 -44 12 -69 1 -68 1 -68 41 0
20 4 42 8 49 9 15 60 24 149 27 40 1 76 6 80 9 4 4 10 2 15 -5 6 -10 8 -9 8 2z
m371 -63 c-15 -43 -46 -61 -39 -22 8 37 -14 30 -45 -15 -9 -13 -17 -20 -17
-14 0 19 25 45 65 68 22 12 42 21 43 20 2 -1 -1 -18 -7 -37z m-741 24 c0 -6
-4 -12 -9 -15 -4 -3 -6 -17 -3 -32 4 -22 2 -25 -19 -22 -31 4 -41 63 -12 71
31 8 43 7 43 -2z m800 -22 c0 -21 -7 -29 -29 -37 l-29 -10 13 33 c8 18 12 35
8 38 -3 3 4 5 16 4 16 -1 21 -8 21 -28z m-92 -105 c-7 -15 -23 -33 -35 -41
-20 -14 -21 -13 -16 9 3 13 10 29 16 36 17 22 -10 13 -42 -14 -19 -16 -29 -20
-25 -10 7 18 108 68 112 56 2 -5 -3 -21 -10 -36z m82 1 c-7 -8 -22 -15 -34
-14 -18 0 -16 3 9 14 39 18 40 18 25 0z m-800 -5 c12 -8 11 -10 -7 -10 -12 0
-25 5 -28 10 -8 13 15 13 35 0z m375 -33 c72 -2 147 0 168 4 38 6 60 -4 31
-15 -21 -8 -348 -8 -396 0 -56 10 -46 20 15 16 28 -1 111 -4 182 -5z m-1041
-27 c26 -10 34 -34 16 -45 -15 -9 -42 15 -36 32 7 17 -4 17 -32 -3 -14 -10
-22 -25 -22 -45 0 -17 4 -28 9 -25 5 3 14 -1 21 -9 10 -12 10 -15 -2 -15 -41
0 -52 66 -16 100 25 23 28 23 62 10z m2147 -1 c31 -16 43 -57 24 -85 -8 -13
-22 -24 -31 -24 -10 0 -7 7 12 23 23 20 25 26 15 45 -7 14 -17 19 -29 16 -14
-5 -15 -4 -2 5 8 6 12 11 8 11 -3 0 -14 3 -22 6 -11 4 -15 2 -11 -8 3 -8 -1
-21 -10 -28 -14 -12 -18 -11 -26 1 -13 22 -11 29 14 39 30 12 35 12 58 -1z
m-913 -6 c-29 -60 -32 -64 -57 -61 -15 2 -27 10 -29 21 -7 35 6 47 49 47 22 0
39 -3 37 -7z m122 -2 c0 -15 -49 -61 -65 -61 -18 0 -19 12 -3 28 23 23 -2 25
-32 3 -29 -21 -44 -15 -17 7 25 21 117 40 117 23z m-374 -26 c0 -14 -6 -25
-13 -25 -7 0 -13 11 -13 25 0 14 6 25 13 25 7 0 13 -11 13 -25z m1104 -51 c27
-42 55 -95 61 -118 14 -53 7 -142 -14 -163 -15 -15 -16 -14 -12 20 3 20 7 53
9 73 9 71 -61 209 -103 202 -23 -4 -41 10 -41 33 0 25 18 24 49 -3 l25 -23
-17 28 c-10 15 -15 27 -12 27 3 0 28 -34 55 -76z m-1980 52 c0 -30 -11 -44
-31 -39 -38 10 -93 -70 -113 -162 l-6 -30 15 25 16 25 -8 -25 c-4 -14 -8 -51
-7 -84 0 -50 -1 -56 -13 -40 -46 63 -16 207 63 299 15 17 23 23 19 15 -4 -8 3
-5 16 8 27 25 49 29 49 8z m1061 -52 c122 -36 244 -126 288 -212 31 -61 25
-65 -9 -6 -16 29 -51 70 -77 92 -50 43 -141 97 -149 89 -3 -2 19 -18 48 -35
30 -16 60 -37 67 -46 7 -9 -12 0 -44 19 -147 88 -364 84 -509 -11 l-41 -27 24
27 c43 46 5 28 -55 -26 -31 -29 -52 -43 -46 -31 15 26 104 98 157 126 109 56
241 72 346 41z m-1085 -19 c4 -8 12 -15 19 -15 6 0 20 -9 30 -20 10 -11 24
-20 30 -20 7 0 15 -7 19 -15 3 -8 10 -15 16 -15 5 0 28 -18 51 -40 39 -38 40
-40 25 -62 -9 -12 -16 -18 -16 -13 0 6 -5 3 -11 -5 -8 -12 -9 -10 -4 9 5 16 4
21 -4 17 -12 -8 -44 18 -34 28 4 3 -1 6 -10 6 -9 0 -22 9 -29 19 -6 10 -17 17
-24 14 -6 -2 -18 4 -25 15 -8 11 -18 19 -24 19 -5 0 -14 9 -20 19 -5 10 -16
24 -22 32 -14 15 -16 25 -6 35 11 12 33 7 39 -8z m1971 -1 c4 -11 -1 -22 -12
-30 -10 -8 -15 -14 -10 -14 4 0 0 -9 -10 -20 -10 -11 -20 -18 -23 -15 -3 3
-12 -4 -20 -16 -8 -11 -20 -18 -27 -15 -9 3 -11 -2 -8 -17 3 -14 1 -18 -4 -10
-11 16 -48 -11 -37 -28 4 -7 3 -10 -4 -5 -6 3 -14 1 -17 -5 -4 -5 -13 -8 -20
-5 -9 3 -11 -2 -8 -17 5 -21 4 -20 -22 5 l-28 27 41 40 c23 23 47 41 52 41 6
0 26 16 46 35 19 19 41 35 50 35 8 0 17 7 20 15 8 20 33 19 41 -1z m-963 -70
c23 -9 20 -22 -6 -27 -21 -5 -21 -5 2 -5 14 1 32 -2 40 -5 8 -3 47 -15 85 -26
39 -12 81 -28 95 -37 27 -16 25 -16 -66 16 -79 28 -134 35 -134 17 0 -8 -7
-17 -15 -21 -8 -3 -15 -10 -15 -16 0 -13 37 -13 45 0 9 14 21 12 39 -5 8 -9
32 -22 53 -30 45 -16 33 -19 -17 -5 -52 15 -189 24 -170 11 8 -6 25 -8 37 -4
13 3 23 1 23 -5 0 -6 10 -13 23 -16 12 -2 5 -4 -15 -2 -45 2 -47 -1 -11 -15
21 -8 24 -12 14 -22 -10 -9 -17 -6 -36 16 -29 33 -38 34 -63 2 -13 -16 -40
-29 -85 -41 -37 -9 -74 -22 -84 -30 -17 -12 -16 -15 12 -39 20 -16 37 -23 50
-19 11 3 70 8 132 11 96 5 121 2 185 -17 77 -23 147 -60 170 -88 9 -11 4 -10
-17 4 -35 25 -75 46 -75 41 0 -2 22 -19 50 -38 27 -19 50 -36 50 -39 0 -3 -30
-3 -67 -1 -50 3 -61 6 -43 11 l25 8 -25 1 c-20 1 -22 3 -10 11 9 6 10 10 3 10
-6 0 -25 -12 -42 -26 -31 -25 -43 -21 -18 6 6 8 2 7 -9 -3 -26 -22 -64 -30
-64 -14 0 7 -4 6 -10 -3 -9 -13 -10 -13 -10 0 0 13 -1 13 -10 0 -8 -12 -14
-13 -41 -3 -18 7 -37 10 -43 6 -6 -3 -8 -2 -3 2 4 5 -25 26 -64 47 -45 25
-107 75 -172 137 -91 88 -100 100 -88 115 8 10 24 22 35 27 13 6 10 0 -9 -15
l-30 -26 31 -31 31 -31 44 23 c24 12 67 30 94 40 28 10 50 23 50 30 0 16 21
23 30 10 9 -16 35 -13 35 4 0 8 -7 15 -16 15 -11 0 -14 5 -10 16 6 15 0 16
-44 11 -66 -8 -64 -1 5 13 36 7 59 18 65 31 11 19 51 25 84 13z m-948 -95 c57
-44 104 -84 104 -89 0 -16 -75 -70 -109 -80 -29 -8 -37 -6 -48 10 -9 12 -26
20 -43 20 -40 0 -60 32 -60 96 0 55 23 124 41 124 6 0 58 -36 115 -81z m723
77 c-9 -8 -99 -44 -99 -40 0 6 81 43 94 44 5 0 7 -2 5 -4z m1227 -31 c19 -46
18 -134 -2 -163 -22 -32 -67 -52 -114 -52 -33 0 -48 6 -68 28 -15 16 -35 31
-45 35 -10 4 -17 12 -15 18 5 16 200 168 216 168 7 1 20 -15 28 -34z m-1939
-27 c-3 -8 -6 -5 -6 6 -1 11 2 17 5 13 3 -3 4 -12 1 -19z m223 -17 c-19 -16
-37 -27 -40 -24 -6 6 51 53 65 53 5 0 -6 -13 -25 -29z m1385 -24 c43 -44 52
-59 52 -90 0 -20 -3 -37 -6 -37 -3 0 -27 21 -54 48 -40 39 -54 47 -85 47 -20
0 -40 -4 -44 -10 -4 -5 -8 6 -8 26 0 66 45 75 112 23 24 -19 23 -17 -6 10 -22
20 -33 36 -26 36 8 0 37 -24 65 -53z m-1289 18 c21 -32 11 -69 -16 -55 -30 16
-57 12 -90 -16 -35 -30 -45 -27 -36 11 7 28 79 85 107 85 10 0 26 -11 35 -25z
m-169 -133 c-13 -12 -16 -12 -21 4 -7 26 -3 49 14 70 14 16 15 14 18 -21 2
-24 -2 -43 -11 -53z m93 48 c0 -11 -7 -20 -15 -20 -18 0 -19 12 -3 28 16 16
18 15 18 -8z m232 -34 c-38 -55 -59 -70 -27 -19 17 27 56 73 61 73 2 0 -14
-24 -34 -54z m-372 -1 c-10 -12 -10 -15 0 -15 10 0 10 -3 0 -15 -7 -8 -17 -15
-22 -15 -6 0 -5 7 2 15 18 22 6 18 -36 -10 -20 -14 -42 -25 -47 -25 -6 0 9 13
34 28 24 16 50 36 58 46 8 9 16 14 19 11 3 -2 -1 -11 -8 -20z m198 3 c7 -7 12
-22 12 -35 0 -18 -6 -23 -25 -23 -26 0 -32 19 -19 54 7 19 16 20 32 4z m1207
-29 c5 -22 2 -27 -16 -32 -14 -4 -27 -1 -31 6 -5 8 -8 5 -8 -8 0 -11 -9 -26
-20 -33 -18 -11 -20 -10 -20 18 0 20 5 30 16 30 8 0 12 5 9 10 -3 6 2 13 12
17 10 3 22 13 27 21 10 17 22 6 31 -29z m85 31 c0 -5 -5 -10 -11 -10 -5 0 -7
5 -4 10 3 6 8 10 11 10 2 0 4 -4 4 -10z m121 -17 c13 -16 12 -17 -3 -4 -10 7
-18 15 -18 17 0 8 8 3 21 -13z m-1461 -34 c0 -16 -4 -29 -10 -29 -5 0 -9 15
-7 34 3 41 17 37 17 -5z m320 36 c0 -2 -10 -9 -22 -15 -22 -11 -22 -10 -4 4
21 17 26 19 26 11z m978 -31 c2 -23 -1 -33 -8 -29 -11 7 -14 48 -3 58 9 10 9
11 11 -29z m-1202 11 c4 -8 12 -15 19 -15 18 0 42 -31 47 -62 7 -37 -4 -35
-52 8 -25 23 -40 45 -40 60 0 27 17 32 26 9z m1365 -12 c13 -16 12 -17 -3 -4
-10 7 -18 15 -18 17 0 8 8 3 21 -13z m78 -19 c14 -12 -19 -1 -35 12 -18 14
-18 14 6 3 14 -6 27 -13 29 -15z m-1179 3 c0 -1 -21 -20 -47 -41 l-48 -38 42
41 c37 36 53 48 53 38z m786 -63 c-3 -8 -10 -14 -16 -14 -14 0 -13 53 3 69 10
10 13 7 15 -14 2 -15 1 -33 -2 -41z m437 49 c-7 -2 -19 -2 -25 0 -7 3 -2 5 12
5 14 0 19 -2 13 -5z m-498 -33 c8 -16 15 -37 14 -47 0 -12 -3 -9 -8 8 -5 14
-14 35 -20 47 -6 12 -9 22 -7 22 3 0 12 -13 21 -30z m-1097 8 c7 -7 13 -44 14
-82 l2 -71 3 63 c4 66 7 70 36 48 16 -13 17 -19 6 -56 -23 -76 -94 -88 -117
-20 -13 37 -4 101 17 117 20 16 24 16 39 1z m1013 -40 c16 -30 3 -20 -27 20
-23 30 -24 33 -5 17 13 -11 27 -28 32 -37z m407 -3 c2 -2 -6 -22 -19 -45 -22
-38 -56 -59 -77 -46 -17 10 -24 76 -12 111 l11 34 46 -25 c26 -13 49 -26 51
-29z m-1597 30 c0 -5 -12 -11 -26 -13 -18 -2 -25 1 -25 13 0 12 7 15 25 13 14
-2 26 -7 26 -13z m245 -13 c-4 -3 -14 2 -24 12 -16 18 -16 18 6 6 13 -6 21
-14 18 -18z m1189 8 c-19 -21 -35 -26 -35 -12 0 5 10 14 23 20 31 15 32 14 12
-8z m275 10 c0 -12 -28 -25 -36 -17 -9 9 6 27 22 27 8 0 14 -5 14 -10z m-1663
-16 c-3 -3 -12 -4 -19 -1 -8 3 -5 6 6 6 11 1 17 -2 13 -5z m648 -43 c40 -27
79 -51 86 -53 25 -8 -3 -30 -32 -24 -50 9 -54 11 -90 39 -36 27 -55 35 -44 18
3 -6 -9 -8 -27 -7 -18 2 -23 1 -11 -1 12 -2 27 -11 35 -20 12 -15 11 -15 -11
-4 -41 22 -121 -14 -121 -55 0 -4 7 1 15 12 14 18 14 17 8 -15 -8 -45 -52
-123 -65 -115 -5 3 -7 13 -4 21 3 8 1 11 -4 8 -12 -7 -2 77 10 85 4 3 10 14
14 25 4 11 26 36 51 54 24 19 42 38 39 43 -3 4 3 5 12 1 11 -4 15 -3 10 5 -7
11 19 31 43 32 7 0 46 -22 86 -49z m770 -89 c-6 -92 -10 -108 -31 -129 -28
-28 -45 -29 -69 -3 -15 16 -16 22 -5 35 7 9 10 18 7 21 -3 3 -1 18 4 33 6 14
15 50 20 80 7 37 18 60 37 76 39 34 46 13 37 -113z m-1472 118 l57 0 0 -74 c0
-79 -5 -86 -55 -86 -27 0 -51 31 -83 107 -27 64 -27 67 1 59 12 -3 48 -6 80
-6z m95 -17 c0 -44 -8 -73 -18 -73 -6 0 -6 9 -1 23 5 13 7 35 4 50 -3 15 -1
27 5 27 5 0 10 -12 10 -27z m292 -80 c0 -7 -22 8 -67 46 -24 19 -43 39 -43 44
0 5 25 -13 55 -38 30 -26 55 -49 55 -52z m1271 31 c-3 -63 -7 -74 -22 -74 -10
0 -12 62 -3 109 11 55 29 30 25 -35z m-1274 19 c-3 -10 -5 -4 -5 12 0 17 2 24
5 18 2 -7 2 -21 0 -30z m998 17 c-3 -5 -11 -10 -16 -10 -6 0 -7 5 -4 10 3 6
11 10 16 10 6 0 7 -4 4 -10z m2 -67 c-4 -17 -4 -17 -12 0 -4 9 -4 25 0 35 8
16 8 16 12 0 3 -10 3 -26 0 -35z m-701 -3 c24 -22 40 -40 36 -40 -11 1 -98 79
-88 80 5 0 28 -18 52 -40z m674 -45 c0 -37 -4 -65 -10 -65 -17 0 -11 -22 12
-47 25 -27 39 -28 79 -7 l31 16 -7 -34 c-4 -18 -16 -45 -27 -60 -11 -16 -17
-32 -14 -37 3 -5 -1 -14 -10 -21 -12 -11 -17 -11 -27 0 -10 10 -9 12 5 7 10
-3 20 -2 23 3 4 6 -1 10 -10 10 -9 0 -25 23 -41 58 -20 44 -26 76 -28 144 -2
49 -1 90 2 93 16 15 22 -2 22 -60z m-321 41 c-7 -8 -118 -10 -126 -3 -3 4 24
7 62 7 38 0 66 -2 64 -4z m151 -6 c0 -5 -2 -10 -4 -10 -3 0 -8 5 -11 10 -3 6
-1 10 4 10 6 0 11 -4 11 -10z m-987 -75 c2 -16 0 -44 -5 -63 -8 -28 -12 -31
-24 -21 -27 22 -43 63 -33 82 7 11 6 17 -1 17 -5 0 -10 13 -10 30 l0 29 34
-22 c23 -15 35 -32 39 -52z m1117 36 c0 -88 -24 -129 -50 -82 -16 32 -12 73
12 98 30 32 38 29 38 -16z m-129 -59 c-13 -25 -42 -49 -74 -61 l-28 -11 18 24
c12 16 20 20 26 12 5 -7 17 0 35 21 30 37 37 41 23 15z m-627 -7 c-7 -18 26
-21 59 -4 21 10 21 10 3 -5 -13 -11 -40 -16 -78 -16 -56 0 -58 1 -48 20 13 25
73 29 64 5z m-59 -67 c-25 -30 -26 -33 -9 -39 14 -5 8 -8 -18 -8 -25 -1 -38 3
-38 12 0 18 39 54 65 60 11 3 22 5 23 6 2 0 -8 -13 -23 -31z m50 -18 c-10 -11
-22 -20 -28 -20 -5 0 1 9 14 20 31 25 37 25 14 0z m915 -49 c-18 -34 -30 -24
-12 11 8 18 17 27 19 21 3 -7 -1 -21 -7 -32z m348 -59 c-1 -56 -1 -56 -7 -14
l-6 44 -23 -66 c-13 -36 -28 -64 -33 -61 -5 4 -6 -1 -3 -9 11 -29 -175 -361
-193 -343 -2 3 12 29 33 59 l37 53 -45 -49 c-27 -31 -49 -47 -56 -42 -9 5 -5
16 13 39 14 18 47 59 73 92 45 58 45 59 10 29 -35 -31 -106 -53 -127 -39 -6 3
26 38 70 77 82 71 181 187 222 258 12 21 25 36 29 34 5 -3 7 -31 6 -62z
m-1891 -14 c66 -95 121 -157 205 -229 37 -32 63 -61 57 -64 -19 -12 -90 7
-122 33 -36 30 -33 26 44 -73 30 -38 47 -65 39 -61 -12 7 -13 6 -3 -4 12 -13
1 -40 -17 -40 -13 0 -105 140 -145 220 -21 41 -53 115 -72 165 -19 49 -37 92
-40 95 -3 3 -3 -49 0 -115 6 -119 45 -313 69 -342 6 -8 8 -16 5 -19 -21 -21
-76 174 -85 299 -8 102 -4 207 7 207 4 0 30 -33 58 -72z m548 62 c-3 -5 -8
-19 -10 -30 -4 -22 5 -20 38 8 10 9 17 11 17 4 0 -10 -78 -62 -93 -62 -9 0 -9
53 -1 74 3 9 17 16 31 16 13 0 21 -4 18 -10z m134 -86 c10 -23 9 -30 -10 -50
-28 -30 -33 -30 -47 1 -16 34 -15 62 1 68 27 12 44 6 56 -19z m70 -24 c0 -10
-3 -8 -9 5 -12 27 -12 43 0 25 5 -8 9 -22 9 -30z m-197 10 c0 -11 1 -25 2 -32
2 -22 -24 -19 -33 4 -9 22 -10 22 -12 -7 -1 -23 -3 -25 -6 -8 -5 27 13 63 32
63 8 0 16 -9 17 -20z m29 -13 c-10 -9 -11 -8 -5 6 3 10 9 15 12 12 3 -3 0 -11
-7 -18z m1294 -190 c-15 -75 -53 -192 -60 -185 -2 2 10 55 26 118 17 63 33
149 37 190 l7 75 3 -59 c2 -33 -4 -95 -13 -139z m-1265 108 l-12 -30 -23 29
c-24 30 -41 22 -30 -15 5 -15 4 -19 -4 -15 -6 4 -11 15 -11 25 0 22 45 65 59
56 6 -3 11 0 12 7 0 7 5 4 10 -7 7 -14 6 -30 -1 -50z m127 3 c-3 -8 -6 -5 -6
6 -1 11 2 17 5 13 3 -3 4 -12 1 -19z m350 0 c-3 -8 -6 -5 -6 6 -1 11 2 17 5
13 3 -3 4 -12 1 -19z m-324 -8 c3 -11 1 -20 -4 -20 -5 0 -9 9 -9 20 0 11 2 20
4 20 2 0 6 -9 9 -20z m36 -28 c1 -7 -3 -10 -9 -7 -5 3 -10 18 -9 33 0 24 1 25
9 7 5 -11 9 -26 9 -33z m232 -5 c-13 -13 -15 11 -4 40 7 16 8 15 11 -6 2 -13
-1 -28 -7 -34z m35 16 c-11 -11 -17 4 -9 23 7 18 8 18 11 1 2 -10 1 -21 -2
-24z m-426 0 c0 -20 -3 -24 -11 -16 -7 7 -9 19 -6 27 10 24 17 19 17 -11z
m190 -16 c0 -10 -4 -15 -10 -12 -5 3 -10 18 -10 33 0 21 2 24 10 12 5 -8 10
-23 10 -33z m171 -10 c-13 -13 -15 11 -4 40 7 16 8 15 11 -6 2 -13 -1 -28 -7
-34z m-132 -10 c1 -10 -3 -15 -9 -12 -5 3 -10 21 -9 38 0 27 2 29 9 12 5 -11
9 -28 9 -38z m31 17 c0 -21 -4 -33 -10 -29 -5 3 -10 19 -10 36 0 16 5 29 10
29 6 0 10 -16 10 -36z m40 14 c0 -13 -5 -30 -10 -38 -7 -11 -10 -5 -10 23 0
20 5 37 10 37 6 0 10 -10 10 -22z m21 -41 c-13 -13 -15 21 -3 50 6 15 8 13 10
-11 2 -16 -1 -33 -7 -39z m309 -21 c0 -38 0 -38 -22 -23 -15 9 -23 25 -24 43
-1 40 4 46 26 31 14 -8 20 -23 20 -51z m-593 -23 c0 -45 5 -78 15 -98 23 -43
87 -101 130 -120 51 -21 134 -19 185 4 30 14 43 16 46 8 2 -7 3 -4 2 5 -2 9
11 29 27 45 48 45 62 81 61 156 0 50 3 67 13 67 9 0 14 -13 14 -37 1 -21 5
-57 9 -80 12 -64 1 -108 -40 -151 -20 -20 -47 -62 -61 -94 -15 -31 -34 -61
-45 -66 -10 -5 -68 -9 -130 -10 -127 0 -133 3 -168 88 -11 25 -36 63 -57 84
-35 37 -46 71 -39 118 0 4 4 39 7 78 5 46 11 70 20 70 9 0 12 -19 11 -67z m49
42 c24 -37 12 -40 -15 -5 -12 17 -17 30 -12 30 6 0 18 -11 27 -25z m54 5 c0
-5 -4 -10 -10 -10 -5 0 -10 5 -10 10 0 6 5 10 10 10 6 0 10 -4 10 -10z m295
-6 c19 -12 25 -25 25 -51 0 -41 -26 -96 -43 -90 -12 4 -24 157 -12 157 3 0 17
-7 30 -16z m-251 -51 c-2 -27 -3 -65 -3 -85 -1 -21 -5 -38 -11 -38 -11 0 -14
152 -3 163 15 16 20 4 17 -40z m486 -6 c-1 -39 -2 -41 -15 -23 -23 30 -18 85
6 70 5 -3 9 -24 9 -47z m-767 16 c17 -9 11 -16 -50 -67 l-68 -57 -3 33 c-3 28
3 39 43 77 26 24 50 40 53 34 4 -5 15 -14 25 -20z m234 12 c9 -25 -4 -29 -17
-6 -7 15 -7 21 0 21 6 0 13 -7 17 -15z m571 -57 l2 33 46 -33 c26 -18 60 -45
76 -60 17 -16 32 -28 35 -28 2 0 35 -25 74 -55 45 -37 69 -63 69 -77 0 -16 3
-18 13 -10 10 9 31 -2 88 -42 41 -30 107 -71 147 -93 40 -21 68 -39 63 -41 -5
-2 -39 4 -76 13 -82 19 -180 69 -255 130 -30 24 -110 88 -177 141 -123 97
-123 98 -121 138 l1 41 7 -45 c6 -40 7 -41 8 -12z m-328 -22 c0 -63 -1 -64
-31 -75 -42 -14 -72 -14 -63 0 3 6 0 15 -7 20 -9 5 -10 9 -2 9 6 0 10 8 9 18
-2 9 2 20 8 24 7 5 4 8 -6 8 -10 0 -18 4 -18 9 0 11 67 24 80 16 6 -3 10 3 10
14 0 12 5 21 10 21 6 0 10 -28 10 -64z m-954 -8 c21 -35 51 -80 67 -100 16
-21 27 -43 25 -50 -4 -12 -81 99 -117 170 -32 62 -18 51 25 -20z m644 52 c0
-5 -4 -10 -10 -10 -5 0 -10 5 -10 10 0 6 5 10 10 10 6 0 10 -4 10 -10z m420 0
c0 -5 -4 -10 -10 -10 -5 0 -10 5 -10 10 0 6 5 10 10 10 6 0 10 -4 10 -10z
m663 -7 c-9 -28 -117 -193 -126 -193 -4 0 15 34 43 75 27 41 50 77 50 80 0 7
31 55 36 55 2 0 1 -8 -3 -17z m-1083 -27 c0 -3 -4 -8 -10 -11 -5 -3 -10 -1
-10 4 0 6 5 11 10 11 6 0 10 -2 10 -4z m420 -6 c0 -5 -2 -10 -4 -10 -3 0 -8 5
-11 10 -3 6 -1 10 4 10 6 0 11 -4 11 -10z m-723 -37 c-6 -34 -40 -83 -51 -72
-7 7 13 81 26 97 20 24 31 13 25 -25z m178 29 c-48 -43 -147 -122 -152 -122
-4 0 13 18 37 41 25 22 44 46 42 54 -2 8 4 12 16 8 10 -2 24 3 31 11 8 9 18
16 24 16 7 0 7 -3 2 -8z m170 -12 c10 -11 13 -20 7 -20 -6 0 -16 9 -22 20 -6
11 -9 20 -7 20 2 0 12 -9 22 -20z m506 3 c13 -16 12 -17 -3 -4 -17 13 -22 21
-14 21 2 0 10 -8 17 -17z m-544 -15 c-3 -8 -6 -5 -6 6 -1 11 2 17 5 13 3 -3 4
-12 1 -19z m390 -10 c-3 -7 -5 -2 -5 12 0 14 2 19 5 13 2 -7 2 -19 0 -25z
m-446 -134 c29 -29 51 -55 48 -57 -26 -24 -101 -28 -115 -6 -3 5 -12 9 -21 9
-9 0 -21 7 -28 16 -10 14 -16 15 -55 1 -54 -18 -70 -13 -70 22 0 22 16 41 88
99 l87 71 7 -51 c5 -44 13 -58 59 -104z m615 85 c4 -22 10 -42 15 -45 5 -3 6
9 3 26 -4 18 -2 30 4 30 14 0 20 -24 21 -84 l1 -48 -37 23 c-21 12 -48 27 -61
33 -13 7 -20 17 -16 26 3 8 8 36 11 62 6 47 6 47 29 31 16 -10 26 -29 30 -54z
m31 46 c0 -8 -4 -15 -9 -15 -4 0 -8 7 -8 15 0 8 4 15 8 15 5 0 9 -7 9 -15z
m-563 -10 c3 -8 1 -15 -4 -15 -6 0 -10 7 -10 15 0 8 2 15 4 15 2 0 6 -7 10
-15z m342 -12 c-10 -10 -19 5 -10 18 6 11 8 11 12 0 2 -7 1 -15 -2 -18z m-319
-15 c-3 -8 -6 -5 -6 6 -1 11 2 17 5 13 3 -3 4 -12 1 -19z m290 -10 c-3 -7 -5
-2 -5 12 0 14 2 19 5 13 2 -7 2 -19 0 -25z m-737 -10 c0 -30 -32 -78 -52 -78
-17 0 -7 64 14 87 29 31 38 29 38 -9z m480 1 c0 -11 -4 -17 -10 -14 -5 3 -10
13 -10 21 0 8 5 14 10 14 6 0 10 -9 10 -21z m239 14 c0 -5 -4 -17 -9 -28 -8
-18 -9 -17 -9 8 -1 15 4 27 9 27 6 0 10 -3 9 -7z m337 -20 c19 -16 61 -51 94
-79 85 -73 193 -144 218 -144 12 0 22 -5 22 -11 0 -14 61 -38 135 -54 33 -8
49 -14 35 -14 -43 -2 -140 28 -204 62 -49 26 -274 195 -336 253 -26 25 2 15
36 -13z m-536 -14 c0 -10 -4 -19 -10 -19 -5 0 -10 12 -10 26 0 14 4 23 10 19
6 -3 10 -15 10 -26z m160 6 c0 -14 -4 -25 -10 -25 -11 0 -14 33 -3 43 11 11
13 8 13 -18z m200 16 c0 -5 -9 -19 -20 -32 l-20 -24 17 32 c19 34 23 39 23 24z
m-330 -31 c0 -11 -4 -20 -10 -20 -5 0 -10 9 -10 20 0 11 5 20 10 20 6 0 10 -9
10 -20z m45 10 c10 8 15 8 20 0 11 -18 -2 -37 -24 -35 -28 2 -35 11 -26 32 5
13 9 14 12 5 4 -9 8 -10 18 -2z m55 -9 c0 -11 -4 -23 -10 -26 -6 -4 -10 5 -10
19 0 14 5 26 10 26 6 0 10 -9 10 -19z m-319 -8 c13 -16 12 -17 -3 -4 -10 7
-18 15 -18 17 0 8 8 3 21 -13z m746 -22 c18 -14 33 -29 33 -33 0 -7 -73 -48
-85 -48 -3 0 -5 27 -5 61 0 66 -1 65 57 20z m-1157 4 c0 -14 -4 -25 -10 -25
-11 0 -14 33 -3 43 11 11 13 8 13 -18z m149 -14 c-35 -30 -49 -25 -15 5 15 14
31 23 34 20 2 -3 -6 -14 -19 -25z m-162 -26 c13 -10 6 -19 -43 -58 -33 -26
-62 -47 -65 -47 -3 0 -11 12 -18 27 -12 25 -10 29 16 50 26 21 29 22 41 6 11
-15 12 -14 12 7 0 13 8 32 18 43 16 18 17 18 21 1 2 -10 10 -23 18 -29z m1015
8 c22 -19 24 -63 4 -63 -18 0 -46 38 -46 62 0 23 18 23 42 1z m-832 -9 c0 -8
-4 -12 -10 -9 -5 3 -10 10 -10 16 0 5 5 9 10 9 6 0 10 -7 10 -16z m-12 -36 c4
-19 -27 -33 -41 -19 -7 7 -6 16 3 26 15 18 34 15 38 -7z m743 5 c13 -16 12
-17 -3 -4 -17 13 -22 21 -14 21 2 0 10 -8 17 -17z m171 0 c21 -19 26 -97 6
-91 -7 3 -18 14 -24 26 -6 12 -14 19 -18 15 -3 -4 -5 10 -4 30 3 41 12 45 40
20z m157 0 c5 -10 13 -17 18 -15 4 2 9 -1 11 -6 1 -5 -15 -21 -37 -35 -45 -30
-59 -34 -42 -13 10 12 9 14 -6 10 -19 -4 -65 26 -48 32 6 2 24 13 40 23 38 25
52 25 64 4z m-1154 -3 c-3 -5 -16 -15 -28 -21 -21 -10 -21 -9 2 10 25 23 36
27 26 11z m887 -15 c3 -13 1 -22 -3 -19 -9 5 -13 44 -5 44 2 0 6 -11 8 -25z
m-748 -8 c15 -11 33 -87 20 -87 -3 0 -33 14 -67 32 l-62 31 33 9 c17 5 32 13
32 18 0 14 23 12 44 -3z m274 -22 c-3 -13 0 -26 6 -29 6 -2 0 -5 -14 -6 -23
-1 -22 -3 10 -16 l35 -14 -50 5 -50 4 65 -19 c36 -10 56 -19 44 -19 -27 -1
-137 20 -145 28 -14 13 12 51 48 70 50 26 56 26 51 -4z m462 -43 c17 -16 21
-26 12 -29 -6 -3 -10 -9 -6 -14 3 -5 -2 -9 -10 -9 -8 0 -17 -4 -20 -8 -3 -5 9
-7 27 -5 24 3 28 2 16 -6 -13 -8 -128 -33 -266 -57 -20 -4 -23 -10 -23 -56 0
-62 -12 -56 -20 9 l-5 47 -90 13 c-108 15 -194 35 -178 40 6 2 45 -3 87 -11
41 -9 100 -16 131 -16 l56 0 -7 35 -6 35 73 1 c62 1 147 14 114 18 -5 1 -3 6
5 11 11 7 11 10 2 10 -8 0 -10 5 -5 13 8 12 9 17 12 38 1 13 67 -25 101 -59z
m-1100 12 c0 -24 -218 -99 -236 -82 -2 3 29 20 69 39 39 19 77 39 82 45 6 6
21 19 35 28 23 15 26 15 37 -1 7 -9 13 -22 13 -29z m150 21 c0 -8 -75 -55 -89
-55 -8 0 6 13 30 30 42 28 59 36 59 25z m359 -17 c11 -29 5 -39 -17 -31 -14 4
-13 2 3 -11 20 -17 20 -17 -5 -10 -29 7 -51 24 -31 24 7 0 9 5 6 10 -7 12 12
40 27 40 5 0 12 -10 17 -22z m795 -64 c1 -59 -17 -67 -37 -17 -14 36 -15 37
-21 13 -3 -14 -7 -36 -8 -50 -3 -23 -4 -23 -9 -4 -4 11 3 48 14 82 21 62 21
62 41 43 14 -14 20 -34 20 -67z m-1088 61 c10 -8 14 -15 8 -15 -5 0 -19 7 -30
15 -10 8 -14 15 -8 15 5 0 19 -7 30 -15z m979 -47 c3 -7 -1 -4 -9 6 -9 11 -16
29 -15 40 1 17 2 16 9 -6 4 -14 11 -32 15 -40z m240 37 c-45 -37 -95 -68 -101
-62 -3 3 7 13 23 23 15 10 41 28 56 41 16 13 34 23 40 23 7 0 -1 -11 -18 -25z
m-1288 -61 c-6 -7 -67 8 -67 16 0 5 15 17 33 29 l32 20 3 -30 c2 -17 2 -33 -1
-35z m63 30 c0 -8 -4 -14 -10 -14 -5 0 -10 2 -10 4 0 2 -3 12 -6 20 -5 12 -2
15 10 10 9 -3 16 -12 16 -20z m-170 -3 c0 -14 -97 -48 -155 -55 -44 -6 -41 -4
23 13 40 11 85 27 100 35 15 7 28 14 30 15 1 1 2 -3 2 -8z m345 -64 c17 -16
-37 4 -82 30 -65 38 -51 48 15 11 31 -17 62 -36 67 -41z m40 63 c3 -5 1 -10
-4 -10 -6 0 -11 5 -11 10 0 6 2 10 4 10 3 0 8 -4 11 -10z m228 -30 c89 -18 62
-22 -34 -5 -46 8 -85 15 -86 15 -2 0 -3 4 -3 9 0 6 13 6 33 1 17 -5 58 -14 90
-20z m-413 -5 c0 -27 -12 -32 -29 -12 -8 10 -7 17 1 25 19 19 28 14 28 -13z
m256 9 c18 -14 18 -15 -6 -8 -31 8 -50 24 -29 24 8 0 24 -7 35 -16z m-271 -65
c-12 -19 -43 -9 -49 16 -10 39 2 46 29 19 14 -14 23 -30 20 -35z m1094 -70
c-16 -39 -29 -36 -29 7 0 24 -4 33 -12 28 -6 -4 2 10 18 31 l29 39 3 -38 c2
-21 -2 -51 -9 -67z m-889 81 c0 -5 -4 -10 -9 -10 -6 0 -13 5 -16 10 -3 6 1 10
9 10 9 0 16 -4 16 -10z m789 -5 c-3 -2 -68 -36 -145 -74 -91 -46 -159 -87
-196 -121 l-58 -52 -55 49 c-30 27 -96 71 -145 97 -50 26 -90 52 -90 57 0 5 3
9 6 9 10 0 129 -65 132 -73 2 -4 8 -5 13 -1 5 3 12 -2 15 -10 3 -9 11 -16 16
-16 6 0 17 -8 25 -17 14 -17 14 -17 9 -1 -8 27 1 22 18 -9 9 -16 15 -21 16
-13 0 13 1 13 10 0 7 -12 10 -8 11 15 l1 30 11 -35 11 -35 6 35 7 35 2 -35 2
-35 14 30 c10 19 13 22 9 8 -7 -31 2 -29 21 5 10 16 14 19 11 7 -6 -19 -5 -19
8 -2 7 9 18 17 24 17 5 0 12 7 16 15 3 8 9 14 13 13 9 -2 85 33 93 43 8 10
144 68 159 69 8 0 12 -2 10 -5z m-735 -11 c17 -6 22 -24 8 -24 -5 0 -17 7 -28
15 -19 15 -8 20 20 9z m7 -68 c-13 -32 -36 -26 -39 12 -3 31 -2 32 22 21 19
-9 23 -16 17 -33z m766 -28 c-3 -7 -5 -2 -5 12 0 14 2 19 5 13 2 -7 2 -19 0
-25z m79 -56 c-11 -95 -26 -129 -20 -47 4 67 3 69 -10 40 -20 -39 -20 -15 -2
30 24 56 40 45 32 -23z m-63 -32 c-3 -12 -8 -19 -11 -16 -5 6 5 36 12 36 2 0
2 -9 -1 -20z"/>
<path d="M1294 2891 c7 -11 46 -35 46 -28 0 3 -12 12 -26 22 -15 9 -23 12 -20
6z"/>
<path d="M1190 2550 c-34 -7 -34 -7 -5 -8 17 0 39 3 50 8 24 10 4 10 -45 0z"/>
<path d="M1138 2253 c12 -2 30 -2 40 0 9 3 -1 5 -23 4 -22 0 -30 -2 -17 -4z"/>
<path d="M937 1954 c-27 -14 -47 -28 -44 -30 5 -6 107 43 107 51 0 9 -15 4
-63 -21z"/>
<path d="M1128 1883 c7 -3 16 -2 19 1 4 3 -2 6 -13 5 -11 0 -14 -3 -6 -6z"/>
<path d="M1100 1860 c0 -5 7 -10 16 -10 8 0 12 5 9 10 -3 6 -10 10 -16 10 -5
0 -9 -4 -9 -10z"/>
<path d="M1160 1859 c0 -5 9 -9 20 -9 11 0 20 2 20 4 0 2 -9 6 -20 9 -11 3
-20 1 -20 -4z"/>
<path d="M1030 1770 c-24 -8 -24 -8 5 -8 17 0 41 4 55 8 24 8 24 8 -5 8 -16 0
-41 -4 -55 -8z"/>
<path d="M962 1734 c-29 -7 -62 -19 -74 -25 -18 -10 -19 -13 -5 -26 13 -14 21
-13 76 6 34 11 68 21 76 21 8 0 15 6 15 14 0 8 8 17 18 19 9 3 1 5 -18 5 -19
0 -59 -6 -88 -14z"/>
<path d="M1950 948 c-19 -24 -26 -37 -17 -29 19 15 61 71 54 71 -2 0 -19 -19
-37 -42z"/>
<path d="M1874 898 l-19 -23 23 19 c21 18 27 26 19 26 -2 0 -12 -10 -23 -22z"/>
<path d="M280 1020 c6 -11 13 -20 16 -20 2 0 0 9 -6 20 -6 11 -13 20 -16 20
-2 0 0 -9 6 -20z"/>
<path d="M937 739 c4 -13 8 -18 11 -10 2 7 -1 18 -6 23 -8 8 -9 4 -5 -13z"/>
<path d="M1353 745 c-3 -9 -3 -18 -1 -21 3 -3 8 4 11 16 6 23 -1 27 -10 5z"/>
<path d="M1035 660 c3 -5 8 -10 11 -10 2 0 4 5 4 10 0 6 -5 10 -11 10 -5 0 -7
-4 -4 -10z"/>
<path d="M1250 659 c0 -5 5 -7 10 -4 6 3 10 8 10 11 0 2 -4 4 -10 4 -5 0 -10
-5 -10 -11z"/>
<path d="M1215 649 c-11 -17 1 -21 15 -4 8 9 8 15 2 15 -6 0 -14 -5 -17 -11z"/>
<path d="M1075 640 c3 -5 8 -10 11 -10 2 0 4 5 4 10 0 6 -5 10 -11 10 -5 0 -7
-4 -4 -10z"/>
<path d="M1140 625 c0 -8 5 -15 10 -15 6 0 10 7 10 15 0 8 -4 15 -10 15 -5 0
-10 -7 -10 -15z"/>
<path d="M999 584 c22 -45 36 -54 84 -54 l32 1 -40 14 c-22 8 -53 29 -68 47
l-29 33 21 -41z"/>
<path d="M1040 606 c0 -2 7 -9 15 -16 9 -7 15 -8 15 -2 0 5 -7 12 -15 16 -8 3
-15 4 -15 2z"/>
<path d="M1293 591 c-6 -10 -31 -27 -55 -39 -38 -19 -40 -21 -16 -22 40 0 57
9 74 42 17 33 15 47 -3 19z"/>
<path d="M1145 580 c3 -5 12 -10 20 -10 8 0 17 5 20 10 4 6 -5 10 -20 10 -15
0 -24 -4 -20 -10z"/>
<path d="M1203 463 c15 -2 37 -2 50 0 12 2 0 4 -28 4 -27 0 -38 -2 -22 -4z"/>
<path d="M1213 443 c9 -2 25 -2 35 0 9 3 1 5 -18 5 -19 0 -27 -2 -17 -5z"/>
<path d="M1184 421 c3 -5 15 -7 26 -4 28 7 25 13 -6 13 -14 0 -23 -4 -20 -9z"/>
<path d="M1161 1333 c-1 -7 -8 -10 -16 -7 -9 4 -17 -1 -20 -12 -3 -11 -17 -42
-30 -69 -30 -60 -30 -66 -6 -94 17 -20 20 -20 35 -6 9 9 16 23 16 31 0 23 14
16 33 -17 17 -31 18 -31 37 -14 26 23 25 37 -4 99 -13 28 -28 62 -34 76 -6 14
-11 20 -11 13z m-1 -113 c0 -5 -5 -10 -11 -10 -5 0 -7 5 -4 10 3 6 8 10 11 10
2 0 4 -4 4 -10z"/>
<path d="M1189 1318 c6 -15 19 -45 31 -67 11 -22 21 -51 21 -63 1 -17 3 -18 6
-5 2 9 9 17 15 17 6 0 3 9 -7 20 -9 10 -15 26 -11 35 4 11 2 14 -6 9 -6 -4 -9
-3 -6 2 3 5 -7 25 -24 44 -27 32 -28 33 -19 8z"/>
<path d="M1219 1313 c12 -23 69 -59 78 -50 2 3 -6 11 -19 17 -12 7 -34 22 -47
34 l-24 21 12 -22z"/>
<path d="M940 1250 c-9 -6 -10 -10 -3 -10 6 0 15 5 18 10 8 12 4 12 -15 0z"/>
<path d="M1348 1248 c5 -5 16 -8 23 -6 8 3 3 7 -10 11 -17 4 -21 3 -13 -5z"/>
<path d="M1280 1216 c0 -2 7 -9 15 -16 9 -7 15 -8 15 -2 0 5 -7 12 -15 16 -8
3 -15 4 -15 2z"/>
<path d="M1575 1175 c5 -11 9 -42 10 -70 0 -66 -25 -70 -41 -6 -12 50 -24 37
-24 -25 0 -51 16 -74 50 -74 72 0 81 126 14 181 -16 13 -17 12 -9 -6z m32
-107 c-3 -8 -6 -5 -6 6 -1 11 2 17 5 13 3 -3 4 -12 1 -19z m-42 -44 c8 -4 22
-1 30 6 13 11 14 10 9 -4 -14 -37 -75 -7 -73 36 0 7 4 3 9 -10 5 -12 16 -25
25 -28z"/>
<path d="M1142 1100 c0 -14 2 -19 5 -12 2 6 2 18 0 25 -3 6 -5 1 -5 -13z"/>
<path d="M1181 1094 c0 -11 3 -14 6 -6 3 7 2 16 -1 19 -3 4 -6 -2 -5 -13z"/>
</g>
</svg>
